Coordinates
version=1
nRows=12
nColumns=42
inDegrees=yes

Units are S.I. units (second, meters, Newtons, ...)
If the header above contains a line with 'inDegrees', this indicates whether rotational values are in degrees (yes) or radians (no).

endheader
time	pelvis_tilt	pelvis_list	pelvis_rotation	pelvis_tx	pelvis_ty	pelvis_tz	hip_flexion_r	hip_adduction_r	hip_rotation_r	knee_angle_r	knee_adduction_r	knee_angle_r_beta	ankle_angle_r	subtalar_angle_r	mtp_angle_r	hip_flexion_l	hip_adduction_l	hip_rotation_l	knee_angle_l	knee_adduction_l	knee_angle_l_beta	ankle_angle_l	subtalar_angle_l	mtp_angle_l	lumbar_extension	lumbar_bending	lumbar_rotation	arm_flex_r	arm_add_r	arm_rot_r	elbow_flex_r	pro_sup_r	wrist_flex_r	wrist_dev_r	arm_flex_l	arm_add_l	arm_rot_l	elbow_flex_l	pro_sup_l	wrist_flex_l	wrist_dev_l
      0.50000000	      2.73317412	     -9.43548880	     -3.88037834	     -1.67231590	      0.83226592	      0.35347520	      7.02544930	      7.37311001	    -26.32452500	     20.89145081	     -2.63638980	      0.36462460	     15.72345414	     23.95569687	     -9.55767586	     -1.96785114	    -16.51808299	    -18.44929836	     42.53711336	     -8.11206534	      0.74241268	     18.75299748	     27.40362808	     -9.55767586	    -21.43642011	     11.88635897	      3.14118083	    -11.23870903	     -3.57487505	    -10.35947539	    108.57253772	     90.00000001	      0.00000000	      0.00000000	     -6.77361614	    -10.30362886	    -24.97041982	     46.20335742	     90.00000001	      0.00000000	      0.00000000
      0.51000000	      2.64681360	     -9.28690221	     -3.93782178	     -1.67018452	      0.83232336	      0.35479862	      6.90898216	      7.32651154	    -26.22229037	     20.81816389	     -2.59895827	      0.36334550	     15.98004599	     24.01505804	     -9.50242443	     -0.80648584	    -16.60625333	    -17.69413887	     44.56115769	     -8.26904076	      0.77773892	     17.30288172	     27.30455867	     -9.50242443	    -21.62490798	     11.76289449	      3.16317879	    -11.54740970	     -3.70602654	    -10.64314468	    108.53917957	     90.00000001	      0.00000000	      0.00000000	     -6.64176567	    -10.23227714	    -24.98866775	     46.48012886	     90.00000001	      0.00000000	      0.00000000
      0.52000000	      2.80696083	     -8.96720167	     -4.16550118	     -1.66809534	      0.83275421	      0.35614373	      6.57153845	      7.04416847	    -25.96347093	     20.85809601	     -2.55567843	      0.36404245	     16.05416176	     23.97783216	     -9.47767621	     -0.07434684	    -16.43468660	    -17.28991433	     46.32056394	     -8.43368185	      0.80844635	     16.48480502	     27.24774741	     -9.47767621	    -22.11316048	     11.37125047	      3.32418598	    -11.76952562	     -3.88354529	    -10.81642276	    108.34653323	     90.00000001	      0.00000000	      0.00000000	     -6.44372945	    -10.19556484	    -24.97025515	     46.69424560	     90.00000001	      0.00000000	      0.00000000
      0.53000000	      2.10632907	     -9.08620065	     -4.07745269	     -1.66655820	      0.83193644	      0.35737215	      7.22386905	      7.43544777	    -26.05827268	     20.75021068	     -2.76954308	      0.36215950	     16.33520956	     23.91021349	     -9.39508846	      2.11258015	    -17.05573918	    -15.96244335	     48.76745995	     -8.10516145	      0.85115274	     14.85965051	     26.46304442	     -9.39508846	    -21.66486936	     11.63845191	      3.21233399	    -12.07672037	     -3.96884358	    -11.21699136	    108.23393795	     90.00000001	      0.00000000	      0.00000000	     -6.37129941	    -10.06233835	    -25.04802794	     47.05696381	     90.00000001	      0.00000000	      0.00000000
      0.54000000	      2.07423554	     -8.92688647	     -4.04462841	     -1.66448613	      0.83199021	      0.35813948	      7.02487577	      7.26036765	    -25.86298309	     20.70244477	     -2.52467850	      0.36132582	     16.57087708	     23.84345190	     -9.34745914	      3.27806522	    -17.12895113	    -15.48742219	     50.57411022	     -8.25501051	      0.88268474	     13.97208227	     25.99007707	     -9.34745914	    -21.88774439	     11.56370960	      3.16147494	    -12.37641884	     -4.13799281	    -11.63003311	    108.17299862	     90.00000001	      0.00000000	      0.00000000	     -6.22240790	     -9.93080684	    -25.06097040	     47.34206421	     90.00000001	      0.00000000	      0.00000000
      0.55000000	      1.76330961	     -8.82833463	     -4.07925747	     -1.66282651	      0.83167322	      0.35916147	      7.25201338	      7.29395206	    -25.76508999	     20.70336745	     -2.60463870	      0.36134193	     16.73140853	     23.75491072	     -9.28040163	      4.82819095	    -17.40965111	    -14.90467283	     52.43672176	     -8.11260725	      0.91519344	     13.18584008	     25.16894898	     -9.28040163	    -21.85833671	     11.52296549	      3.13554271	    -12.55515595	     -4.27246336	    -11.92531226	    108.01591153	     90.00000001	      0.00000000	      0.00000000	     -6.09667245	     -9.84886054	    -25.08270491	     47.64791404	     90.00000001	      0.00000000	      0.00000000
      0.56000000	      1.91021162	     -8.49265755	     -4.23503776	     -1.66098282	      0.83206888	      0.36004303	      6.96203996	      6.92858374	    -25.55540732	     20.79328654	     -2.51077457	      0.36291131	     16.73603515	     23.59004480	     -9.25525702	      5.60231746	    -17.32106810	    -14.96565790	     53.68479507	     -8.17200785	      0.93697643	     12.89934739	     24.87427953	     -9.25525702	    -22.32810933	     11.13920600	      3.22889460	    -12.61026000	     -4.43345397	    -12.03098228	    107.77341029	     90.00000001	      0.00000000	      0.00000000	     -5.86663577	     -9.78951503	    -25.00355095	     47.85611908	     90.00000001	      0.00000000	      0.00000000
      0.57000000	      1.33236995	     -8.57508867	     -4.19085139	     -1.65951630	      0.83130675	      0.36078687	      7.46619364	      7.15758689	    -25.56346354	     20.72784896	     -2.56419280	      0.36176921	     17.04500988	     23.66446537	     -9.18265162	      7.60995168	    -17.86215354	    -14.73910722	     55.42567174	     -8.28415485	      0.96736046	     12.44980546	     23.53207456	     -9.18265162	    -22.01463677	     11.37742682	      3.15510191	    -12.73583668	     -4.45254637	    -12.37894335	    107.78404880	     90.00000001	      0.00000000	      0.00000000	     -5.79622819	     -9.61664871	    -25.01578832	     48.26766652	     90.00000001	      0.00000000	      0.00000000
      0.58000000	      1.45293361	     -8.33629000	     -4.23053603	     -1.65777300	      0.83162894	      0.36137483	      7.17280610	      6.85590536	    -25.50192439	     20.75119352	     -2.40823798	      0.36217665	     17.09344748	     23.56408027	     -9.16240514	      8.47756195	    -17.93629621	    -15.04006106	     56.34536265	     -8.39761704	      0.98341210	     12.44022536	     23.16073282	     -9.16240514	    -22.46087755	     11.13642913	      3.15975238	    -12.70290029	     -4.62516402	    -12.50663360	    107.63214921	     90.00000001	      0.00000000	      0.00000000	     -5.55185355	     -9.56276769	    -24.94674582	     48.43940639	     90.00000001	      0.00000000	      0.00000000
      0.59000000	      1.21413963	     -8.37609656	     -4.15609247	     -1.65615782	      0.83135855	      0.36172304	      7.23753015	      6.89715892	    -25.55168260	     20.66007301	     -2.27577349	      0.36058630	     17.34939693	     23.73276386	     -9.12931480	      9.98047049	    -18.32564889	    -15.70542225	     57.32536849	     -9.07420775	      1.00051643	     12.78917429	     22.04697830	     -9.12931480	    -22.51530438	     11.31164823	      3.10109512	    -12.69478667	     -4.70551783	    -12.80398373	    107.66301620	     90.00000001	      0.00000000	      0.00000000	     -5.41931401	     -9.40510888	    -24.90919848	     48.76120245	     90.00000001	      0.00000000	      0.00000000
      0.60000000	      0.75893715	     -8.25232449	     -4.24344042	     -1.65489516	      0.83079677	      0.36230423	      7.72735572	      6.82278718	    -25.60994983	     20.83500109	     -2.36282436	      0.36363937	     17.51105492	     23.89512655	     -9.04450757	     11.67965581	    -18.66308582	    -16.06000496	     58.20639662	     -9.08955843	      1.01589327	     13.20133551	     20.59274670	     -9.04450757	    -22.36450552	     11.24706040	      3.10021435	    -12.64477790	     -4.78743836	    -12.91407248	    107.56789555	     90.00000001	      0.00000000	      0.00000000	     -5.25822694	     -9.35085609	    -24.81238107	     49.02678023	     90.00000001	      0.00000000	      0.00000000
      0.61000000	      0.78855449	     -8.15755686	     -4.18814887	     -1.65328633	      0.83092760	      0.36254977	      7.50542991	      6.67575027	    -25.72891712	     20.74700710	     -2.24593709	      0.36210358	     17.60954145	     23.90954468	     -9.02798857	     12.74582474	    -18.96850773	    -16.86161779	     58.60042470	     -9.39553021	      1.02277035	     13.65945282	     20.06041971	     -9.02798857	    -22.71324641	     11.20913925	      3.02465010	    -12.53802917	     -4.83630004	    -13.04805675	    107.47696647	     90.00000001	      0.00000000	      0.00000000	     -5.02367142	     -9.27882484	    -24.74633639	     49.19110558	     90.00000001	      0.00000000	      0.00000000
